{"title":"Greys Anatomy S08E09 Dark Was the Night HDTV XviD - LOL [eztv]","uid":6807956,"size":366776993,"categoryP":"video","categoryS":"tv_shows","magnet":"?xt=urn:btih:ccfea3b035c02f0be4040426b0d0fac34b63ff34&amp;dn=Greys+Anatomy+S08E09+Dark+Was+the+Night+HDTV+XviD+-+LOL+%5Beztv%5D&amp;tr=udp%3A%2F%2Ftracker.openbittorrent.com%3A80&amp;tr=udp%3A%2F%2Fopen.demonii.com%3A1337&amp;tr=udp%3A%2F%2Ftracker.coppersurfer.tk%3A6969&amp;tr=udp%3A%2F%2Fexodus.desync.com%3A6969","seeders":0,"leechers":0,"uploader":"DellyRiuM","files":1,"time":1320938297,"description":"\n\n\n\n\n\n\n\n\n-------------------------------------------------------------------\nPlease share....Dont hit and run...Seed it back at least once.\n\nOf course, if you want to seed it back more than once, that would be ok too :)\n-------------------------------------------------------------------\t\n\nQUALITY:  PERFECT 10/10\n\nAll details are here: \n\nFormat  | AVI           Language | ENGLISH  \nSource  | DVD PAL       Subs     | NONE \n\nQUALITY:  PERFECT 10/10\n\n- Video\nID                               : 0\nFormat                           : MPEG-4 Visual\nFormat profile                   : Advanced Simple@L5\nFormat settings, BVOP            : Yes\nFormat settings, QPel            : No\nFormat settings, GMC             : No warppoints\nFormat settings, Matrix          : Default (H.263)\nMuxing mode                      : Packed bitstream\nCodec ID                         : XVID\nCodec ID/Hint                    : XviD\nBit rate                         : 1 345 Kbps\nWidth                            : 720 pixels\nHeight                           : 314 pixels\nDisplay aspect ratio             : 2.25:1\nFrame rate                       : 29.970 fps\nColor space                      : YUV\nChroma subsampling               : 4:2:0\nBit depth                        : 8 bits\nScan type                        : Progressive\nCompression mode                 : Lossy\nBits/(Pixel*Frame)               : 0.198\nStream size                      : 1.19 GiB (87%)\nWriting library                  : XviD 1.1.0 (UTC 2005-11-22)\n\n- Audio\nID                               : 1\nFormat                           : AC-3\nFormat/Info                      : Audio Coding 3\nMode extension                   : CM (complete main)\nCodec ID                         : 2000\nBit rate mode                    : Constant\nBit rate                         : 192 Kbps\nChannel(s)                       : 2 channels\nChannel positions                : Front: L R\nSampling rate                    : 48.0 KHz\nBit depth                        : 16 bits\nCompression mode                 : Lossy\nStream size                      : 175 MiB (12%)\nAlignment                        : Aligned on interleaves\nInterleave, duration             : 33 ms (1.00 video frame)\nInterleave, preload duration     : 512 ms\t\n\n\n    \n\n- Greets\n\nGreets to | X | Joshua08 | IMAGiNE | PrisM | DiGiTAL iNK |\n\n\n-------------------------------------------------------------------\nPlease share....Dont hit and run...Seed it back at least once.\n\nOf course, if you want to seed it back more than once, that would be ok too :)\n-------------------------------------------------------------------\t\n\n\n-------------------------------------------------------------------\nPlease share....Dont hit and run...Seed it back at least once.\n\nOf course, if you want to seed it back more than once, that would be ok too :)\n-------------------------------------------------------------------\t\n\n\n\n- Notes \n\nIm looking for anybody who Wants to Supply\nDirect or Line Audio. Pre Released R5s,  \nScreeners, NTSC or PAL Pre Retail DVDs   \nor Anything else Usefull                  \n                                          \n         \n                                          \n\n\n\n\n\n\n\n\n\n\n\n\n\n\n\n\n\n\nENJOY THE SHOW! As usual, its a perfect quality release from us! 10/10\n\nVIDEO QUALITY : 10/10\n\nAUDIO QUALITY : 10/10\n\nPIRATES ROCK!\n\n\n\n-------------------------------------------------------------------------\n","torrent":{"xt":"urn:btih:ccfea3b035c02f0be4040426b0d0fac34b63ff34","amp;dn":"Greys+Anatomy+S08E09+Dark+Was+the+Night+HDTV+XviD+-+LOL+%5Beztv%5D","amp;tr":["udp%3A%2F%2Ftracker.openbittorrent.com%3A80","udp%3A%2F%2Fopen.demonii.com%3A1337","udp%3A%2F%2Ftracker.coppersurfer.tk%3A6969","udp%3A%2F%2Fexodus.desync.com%3A6969"],"infoHash":"ccfea3b035c02f0be4040426b0d0fac34b63ff34","infoHashBuffer":{"type":"Buffer","data":[204,254,163,176,53,192,47,11,228,4,4,38,176,208,250,195,75,99,255,52]},"announce":[],"urlList":[]}}